<svg width="146" height="71" viewBox="0 0 146 71" fill="none" xmlns="http://www.w3.org/2000/svg">
<path fill-rule="evenodd" clip-rule="evenodd" d="M80.5046 13.4026L72.714 0L64.9234 13.4026L66.3006 14.2062L71.9172 4.54351V12.5007H73.511V4.54391L79.1274 14.2062L80.5046 13.4026ZM56.4874 31.0883L61.795 21.9574L60.4178 21.1538L53 33.9151H67.4103V32.3184H57.5507L64.5836 28.2853L63.7919 26.8995L56.4874 31.0883ZM83.633 21.9574L88.8735 30.973L81.7701 26.8995L80.9784 28.2853L88.0113 32.3184H78.0176V33.9151H92.428L85.0102 21.1538L83.633 21.9574ZM63.3821 17.8306L72.781 34L82.1799 17.8306H63.3821ZM71.9844 29.4567L66.9144 20.7346L71.9844 23.6229V29.4567ZM67.844 19.4273L72.7937 22.2472L77.7434 19.4273H67.844ZM6.37474 53.8327C1.9463 54.5504 0 58.0007 0 62.348C0 66.7612 1.9463 70.1604 6.37474 70.8657V69.1252C3.44731 68.5136 2.14676 66.2496 2.14676 62.348C2.14676 58.4464 3.44731 56.1824 6.37474 55.5708V53.8327ZM7.64972 69.2825V70.9902C7.81927 70.9972 7.99188 71.0007 8.16755 71.0007C8.42655 71.0007 8.67892 70.993 8.92474 70.9779V69.2678C8.68137 69.2858 8.42901 69.2949 8.16755 69.2949C7.99074 69.2949 7.81815 69.2907 7.64972 69.2825ZM7.64972 55.4135V53.7059C7.81927 53.6989 7.99188 53.6953 8.16755 53.6953C8.42655 53.6953 8.67892 53.7031 8.92474 53.7185V55.4282C8.68137 55.4102 8.42901 55.4011 8.16755 55.4011C7.99074 55.4011 7.81815 55.4053 7.64972 55.4135ZM14.213 62.348C14.213 66.1425 12.9662 68.3881 10.1997 69.0711V70.8237C14.4646 70.0313 16.3598 66.6597 16.3598 62.348C16.3598 58.101 14.4646 54.6812 10.1997 53.8755V55.6249C12.9662 56.3078 14.213 58.5534 14.213 62.348ZM36.0802 68.9241H46.2465V70.5805H34.0322V54.1404H46.1725V55.7968H36.0802V61.3098H45.4322V62.9414H36.0802V68.9241ZM63.1315 54.1404H61.1081V69.1961C60.7873 68.4544 60.3925 67.6386 60.0717 67.07L52.6198 54.1404H49.1652V70.5805H51.2133V55.5248C51.4847 56.1676 51.8302 56.8845 52.2496 57.6756L59.7016 70.5805H63.1315V54.1404ZM78.8678 54.1404C84.247 54.1404 86.5171 57.8487 86.5171 62.3234C86.5171 66.8475 84.247 70.5805 78.8678 70.5805H72.0574V54.1404H78.8678ZM78.4976 68.9241C82.8652 68.9241 84.3704 66.5014 84.3704 62.3234C84.3704 58.1454 82.8898 55.7968 78.4976 55.7968H74.1054V68.9241H78.4976ZM101.308 68.9241H91.1422V62.9414H100.494V61.3098H91.1422V55.7968H101.234V54.1404H89.0941V70.5805H101.308V68.9241ZM106.275 68.9241H114.862V70.5805H104.227V54.1404H106.275V68.9241ZM126.652 54.1404V55.7968H120.779V70.6052H118.756V55.7968H112.834V54.1404H126.652ZM125.246 70.5803L132.916 54.3339L140.717 70.5803H125.246ZM137.675 68.6643H128.266L132.931 58.7841L137.675 68.6643ZM145.346 56.6332C145.346 55.3661 144.316 54.3339 143.03 54.3339C141.745 54.3339 140.725 55.3661 140.725 56.6332C140.725 57.931 141.755 58.9632 143.03 58.9632C144.305 58.9632 145.346 57.931 145.346 56.6332ZM144.836 56.6332C144.836 57.6347 144.04 58.4624 143.041 58.4624C142.021 58.4624 141.235 57.6347 141.235 56.6332C141.235 55.642 142.021 54.8245 143.041 54.8245C144.04 54.8245 144.836 55.6318 144.836 56.6332ZM143.602 56.6843C143.897 56.623 144.061 56.3982 144.061 56.1121C144.061 55.6931 143.765 55.458 143.285 55.458H142.153V57.8391H142.612V56.8376H143.153C143.428 56.8376 143.53 56.9602 143.53 57.2157V57.4201C143.53 57.6245 143.561 57.7369 143.591 57.8391H144.03C143.999 57.7267 143.979 57.5734 143.979 57.4099V57.1953C143.979 56.9091 143.887 56.7354 143.602 56.6843ZM143.561 56.1529C143.561 56.3675 143.449 56.4799 143.194 56.4799H142.612V55.8361H143.224C143.459 55.8361 143.561 55.9485 143.561 56.1529ZM31.5538 58.9365C31.5538 56.2912 30.1226 54.1404 26.5941 54.1404H19.0681V70.5805H21.1408V63.7573H26.4953C30.1226 63.7573 31.5538 61.557 31.5538 58.9365ZM29.407 58.9365C29.407 60.8153 28.5187 62.1009 26.0759 62.1009H21.1408V55.7968H26.1499C28.5187 55.7968 29.407 56.9834 29.407 58.9365Z" fill="white"/>
</svg>
